<?xml version="1.0" encoding="UTF-8"?>
<svg id="Layer_1" data-name="Layer 1" xmlns="http://www.w3.org/2000/svg" viewBox="0 0 200 200">
  <defs>
    <style>
      .cls-1 {
        fill: #f9f9f9;
      }

      .cls-2 {
        fill: #ce1126;
      }
    </style>
  </defs>
  <path class="cls-1" d="M82.67,198.33l30.67-18.33-33.33-20,33.33-20-33.33-20,33.33-20-33.33-20,33.33-20-33.33-20,33.33-20L82.67,1.67C35.67,9.67,0,50.67,0,100s35.67,90.33,82.67,98.33Z"/>
  <path class="cls-2" d="M100,0c-6,0-11.67.67-17.33,1.67l30.67,18.33-33.33,20,33.33,20-33.33,20,33.33,20-33.33,20,33.33,20-33.33,20,33.33,20-30.67,18.33c5.67,1,11.33,1.67,17.33,1.67,55.33,0,100-44.67,100-100S155.33,0,100,0"/>
</svg>