<?xml version="1.0" encoding="UTF-8"?>
<svg id="Layer_1" data-name="Layer 1" xmlns="http://www.w3.org/2000/svg" viewBox="0 0 200 200">
  <defs>
    <style>
      .cls-1 {
        fill: #bf9300;
      }

      .cls-2 {
        fill: #141414;
      }

      .cls-3 {
        fill: #fff;
      }

      .cls-4 {
        fill: #f9f9f9;
      }

      .cls-5 {
        fill: #ce1225;
      }
    </style>
  </defs>
  <path class="cls-5" d="M100,0C56.33,0,19.33,28,5.67,66.67h188.67C180.67,28,143.67,0,100,0Z"/>
  <path class="cls-2" d="M100,200c43.67,0,80.67-27.67,94.33-66.67H5.67c13.67,39,50.67,66.67,94.33,66.67Z"/>
  <path class="cls-4" d="M5.67,66.67C2,77,0,88.33,0,100s2,23,5.67,33.33h188.67c3.67-10.33,5.67-21.67,5.67-33.33s-2-23-5.67-33.33H5.67Z"/>
  <g>
    <path class="cls-3" d="M95.33,77c1-.67,1.67,0,2.33.67.33.67.33,2.67-.33,5-.33,1.33-1.33,2.67-2,3.67,1.33,0,3-.33,4.67-1,1.67.67,3,1,4.67,1-.67-1.33-1.33-4-1-6,0-3-.33-4-1-4.67-.67-.67-2.33-1-3.33-1-.67,0-.67.33-.67.33-1.33-.33-2.33-.33-3,0-.67.67-.67,2.33-.33,2"/>
    <path class="cls-3" d="M117.67,87c-.67-3.67-4.33-2.67-7.33-1-1.33.67-2.67,1.33-4,1.33h-1c-1.67,0-3.67-.33-5.33-1-1.67.67-3.67,1-5.33,1h-.67c-1.67,0-3-.67-4.33-1.67-2.67-1.33-6.33-2.33-7.33,1,.67-.33,1.33-1,1.67-1l-1.33,32,.67-.67,1.33-31c.33.33,1.67,1.67,2,1.67l-1,27,1-1,1-25.67c.33.33,1.33,1,1.67,1.33l-1,22.33,2.67-2.33,2.67-9c-2.33-5-2-9.33-2-9.33h.67c1.67,0,5.33-1,7-2,.33,0,.33-.33.67-.33,0,.33.33.33.67.67,1.67,1,5.33,2,7,2h.67s.33,4.33-2,9.33l2.33,8.67,2.67,2.33-1-22c.33-.33,1-1,1.67-1.33l1,25,1,1-1-26.67c.33-.33,1.67-1.33,2-1.67l1.33,30.67.67.67-1.33-31.67c.33.33,1.33,1,2,1.33"/>
    <path class="cls-3" d="M97,92.33v13s0,.33.33.33c.33.67,1,1,1.33,1.67l1,1,1-1,1.67-1.67v-12.67c-1-.33-2-.67-2.67-1.33-.33-.33-1.33,0-2.67.67"/>
  </g>
  <path class="cls-1" d="M114.33,119.67c0-1.67-1.67-1.67-3-1.33q-.33,0-.67.33l-2-7.33,11,10.67-1.33-34.67c-.33-5.33-4.67-4-7.67-2-1.67,1-3,1.67-4.67,1.67-2.33-4-1-9.33-2.67-10.67-.67-.67-3-1.67-4.67-1.67-1,0-.67.67-.67.67-1.67-.33-3-.33-3.67.33-.67.33,0,3.67.33,3,1-1,1.33-.67,2,.33.67,1-.67,5-2.33,8-2,0-3.67-.67-5.33-1.67-3.33-2-7.67-3-7.67,2l-1.33,34.33,11-10.33-2,7q-.33,0-.67-.33c-1.33-.33-3-.33-3,1.33-2-.33-2.67,2.67-.67,3.33,0,1,0,1.67,1.33,1.67,3,1,8.33,1.33,13.67,1.33s10.67-.33,13.67-1.33c1.33-.33,1.33-1,1.33-1.67,2.67-.67,1.67-3.67-.33-3M97.33,105.33q0-.33,0,0l-.33-.33v-12.67c1.33-.33,2.33-.67,3-1.33.67.67,1.67,1,2.67,1.33v12.67c-.67.67-1,1.33-1.67,1.67l-1,1-1-1c-.67-.33-1-1-1.67-1.33M97.33,83c.67-2.33.67-4.33.33-5-.67-.67-1.33-1.33-2.33-.67-.33.33-.33-1.33.33-1.67s1.67-.33,3,0c0,0,0-.67.67-.33,1,0,3,.67,3.33,1,.33.33,1,1.67,1,4.67,0,2,.33,4.67,1,6-1.33,0-3-.33-4.67-1-1.67.67-3,1-4.67,1,.67-1.33,1.67-2.67,2-4M88.67,112.67l1-22.33c-.33-.33-1-1-1.67-1.33l-1.33,25.33-1,1,1-27c-.33-.33-1.67-1.33-2-1.67l-1.33,31-.67.67,1.33-32c-.33,0-1.33.33-1.67,1,1-3.33,4.67-2.33,7.33-.67,1.33,1,3,1.33,4.33,1.67h.67c1.67,0,3.33-.33,5.33-1,2,.67,3.67,1,5.33,1h1c1.33-.33,2.67-.67,4-1.33,3-1.67,6.67-2.67,7.33,1-.67-.33-1.67-1-2-1l1.33,31.67-.67-.67-1.33-31.33c-.33.33-1.67,1.67-2,1.67l1,26.67-1-1-1-25c-.33.33-1.33,1-1.67,1.33l1,22-2.67-2.33-2.33-8.67c2.33-5,2-9.33,2-9.33h-.67c-1.67,0-5.33-.67-7-2-.33,0-.33-.33-.67-.67,0,0-.33.33-.67.33-1.67,1-5.33,2-7,2h-.67s-.33,4.33,2,9.33l-2.67,9-2.33,2.67M100,119.33h-3.67l2.33-11.33c.33.33.67.67,1.33,1,.33-.33,1-.67,1.33-1l2.67,11.33h-4"/>
</svg>