<?xml version="1.0" encoding="UTF-8"?>
<svg id="Layer_1" data-name="Layer 1" xmlns="http://www.w3.org/2000/svg" viewBox="0 0 200 200">
  <defs>
    <style>
      .cls-1 {
        fill: #fff;
      }
    </style>
  </defs>
  <path class="cls-1" d="M36.64,44.77c-1.84.43-.66.35-2.19.55-6.52,1.41-1.68,2.66,2.19-.55ZM151.37,47.38c.47-.31,2.11-1.91-3.01-3.48.31,1.6-1.05,1.45-1.05,2.34,3.79,3.44,5.35,9.41,10.2,10.66.94-4.3-4.3-6.41-6.13-9.53ZM33.16,43.52c.59,3.48,3.2-3.67,3.24-6.21-1.02.59-2.03,1.17-3.09,1.64,2.46,1.25.31,2.58-2.34,4.57-5.39,6.72,5.04-5.23,2.19,0ZM100,0C44.77,0,0,44.77,0,100s44.77,100,100,100,100-44.8,100-100S155.23,0,100,0ZM102.66,33.52l.47.16c-1.87,2.42,9.77,9.49,1.41,10.08-7.81,2.23,3.28-2.03-2.77-1.29,3.2-4.45-2.54-4.53.9-8.95ZM55.23,39.92c-2.81-2.34-11.64,3.2-8.55,1.88,7.66-3.01.51.31,2.3,3.91-1.64,3.4-.55-3.36-4.61.66-2.93.66-10.12,7.3-9.22,5.27-.23,3.16-8.55,6.91-9.69,12.19-2.73,7.3-.66-.27-1.17-3.12-3.91-4.96-11.02,8.4-8.91,13.67,3.55-6.25,3.28-.66.7,2.11,2.62,4.8-2.38,11.05,2.58,14.61,2.19.51,6.56-7.34,4.65.82,1.33-7.07,3.67,1.68,7.46-.27.23,3.71,2.54,1.99,3.05,6.48,6.33-.47,12.11,10.23,4.57,12.27,1.13-.31,3.36,1.68,5.94.16,4.37,3.48,15.9,3.91,16.21,12.5-7.93,3.79-1.95,14.18-8.83,17.89-7.89-1.17-2.7,9.73-6.02,8.48,1.33,7.85-7.97-1.02-4.37,3.32,6.6,4.06-2.89,3.24.08,6.21-3.32-.7,2.07,6.17,2.97,8.71,4.77,7.73-4.1-1.72-6.72-4.3-2.5-5-8.4-14.57-10.04-22.42-.94-11.41-9.77-19.06-11.8-30.2-2.03-6.21,5.59-16.17,1.48-19.65-3.55-2.77-2.11-12.27-4.22-17.27,5.27-22.85,22.03-42.11,42.15-53.52-2.07,1.52,11.84-3.95,10.23-2.62-.43.98,8.13-3.71,13.28-4.41-.55.08-13.4,4.69-9.84,4.06-5.51,2.7-.55,1.17,2.19-.2-5.47,4.02-9.69,2.89-15.9,6.45-6.25,1.64-4.96,8.12-9.41,11.37,2.62.47,9.18-6.76,13.01-9.3,8.79-4.26-4.45,7.73,3.91,2.58-2.81,2.62-2.23,6.8-3.95,7.97-.86-.23,3.4,2.03-3.52,3.71ZM68.91,21.95c-.9,1.21-2.15,3.83-2.89,2.23-1.02.51-1.41,2.7-3.32.94,1.13-.82,2.3-2.77.08-1.56,1.02-1.09,10.08-4.18,9.57-5.35,1.6-1.02,1.45-1.52-.39-.9-.94-.31,2.23-2.97,6.45-3.32.59,0,.82.39-.23.27-6.37,1.95-3.63,1.41.66,0-1.64.94-2.77,1.21-3.05,1.64,4.3-1.56-.23,1.13.74.94-1.21.62.2.82-2.15,1.72.43-.35-3.83,2.54-1.29,1.68-2.46,2.34-3.55,2.38-4.18,1.72ZM72.66,27.54c.08-3.75,5.47-6.13,4.8-6.33,6.64-3.12-2.3.12,2.93-2.7,1.95-.2,6.09-6.45,11.84-6.84,6.33-1.91,3.4.12,8.09-1.68l-.94.78c-.82.12.2,1.56-2.77,3.75-.31,3.4-5.66,1.84-3.01,5.47-1.72-2.46-4.3-.08-1.05.16-3.48,2.66-11.56,3.12-15.43,7.54-2.5,3.59-4.8,2.46-4.45-.16ZM100.43,40.04c-2.66,6.41-5.23-.94-.55-2.11,1.17.62,1.64.82.55,2.11ZM90.43,27.23c-.78-2.89-.16-1.37,4.49-2.73,3.2,2.3-2.85,3.83-4.49,2.73ZM163.16,141.88c-3.67-6.33,4.45-12.19,7.19-17.5-.35,6.21-1.13,12.34-7.19,17.5ZM176.99,69.57c-3.98.31-7.58,1.25-11.17-1.02-8.28-9.06,1.52,10.23,4.26,2.34,9.84,3.75-.16,19.92-6.37,18.24-3.48-7.5-7.77-15.74-15.35-19.41,5.82,6.45,8.71,14.38,14.96,20.2.43,8.13,8.67-2.97,8.16,3.32.78,10.82-12.23,17.3-9.96,28.16,4.84,9.88-9.34,11.68-7.73,20.55-5.7,6.37-11.8,14.96-22.03,13.59,0-5.39-2.73-9.96-3.36-15.51-5.55-7.03,5.86-14.57-1.21-21.91-8.16-1.84,1.68-13.09-6.72-12.03-5.04-5.04-12.42-.16-19.65-.12-9.06.86-18.4-11.13-14.38-19.61-3.2-8.83,10.16-11.41,10.51-19.18,6.41-5.35,15.51-4.69,24.18-5.94-.63,6.21,5.94,6.25,10.9,8.32,2.77-6.72,11.41,1.09,17.3-3.16,2.03-9.92-5.74-3.95-10.2-7.11-5.39-7.89,11.52-4.06,9.77-8.2-6.56-.04-2.85-8.09-7.5-3.59,4.18.74-.74,4.02-.63.27-6.33-1.84-.23,7.19-3.44,8.05-4.88-2.03-2.58,2.3-2.07,2.97-2.11,4.57-4.69-6.72-10.66-6.41-5.94-5.43-2.34,2.46,2.81,3.75-1.09.31.63,4.8-.74,2.89-4.26-5.86-12.34-9.77-17.15-2.58-.51,6.72-14.18,8.63-11.99.78-3.2-8.13,9.92-.23,8.71-6.72-8.44-5.59,2.3-3.79,5.16-9.02,6.48.2.27-5.31,3.32-6.91-.31,5.98,4.96,4.84,9.14,3.71-1.02-3.44,2.5-3.32.35-6.17,9.69-3.87-7.38,1.8-3.95-6.68-4.18-2.89-1.76,6.37,0,7.34.12,2.85-2.3,6.37-5.62.39-4.84,3.16-4.34-3.2-4.65-2.54-.55-2.46,3.67-2.58,3.71-6.87-.35-2.73-.27-4.18,1.68-4.34.16.39,8.01.51,10.78,3.75-7.58-1.52-1.13,1.25,2.27,2.81-3.63-2.85,1.45,0-1.52-3.24,1.17.23-3.24-4.45,1.29-.35-2.46-2.93,4.8-2.07.51-4.26,6.29,1.76,2.58.16-1.13-1.45-10.23-6.09,18.09,8.24,6.52,1.87,7.38,1.6-15.78-5.7-5.23-2.5-4.02-1.76-.12-.78,3.52.35-6.52-2.03-16.29-5.82-15.9-5.98,2.27.16,4.49.66,6.64,1.29,6.68,1.99-1.91-.47-.08-.43,22.97,5.9,43.09,21.29,55.31,41.41,2.85,3.01,10.63,22.89,6.56,14.06,1.84,7.03,2.11,14.61,3.09,21.8-2.03-2.27-4.3-10.62-6.25-15.27-.82,1.8-1.76-2.54-4.77-3.71Z"/>
</svg>