<?xml version="1.0" encoding="UTF-8"?>
<svg id="Layer_1" data-name="Layer 1" xmlns="http://www.w3.org/2000/svg" viewBox="0 0 200 200">
  <defs>
    <style>
      .cls-1 {
        fill: #006c35;
      }

      .cls-2 {
        fill: #fff;
      }
    </style>
  </defs>
  <circle class="cls-1" cx="100" cy="100" r="100"/>
  <g>
    <path class="cls-2" d="M99,82.33c-.33-3,1.33-6,4.33-5.33,2.33.33,5,2.67,3.67,5-2,3.67-7.33,3.67-10.67,5.67.33,2,10-.33,11.67-.33s3.33.67,2.33,2.67c-1,2-4.33,2-6.33,2.33-2,.33-5.33.33-6.33,2-2,2.67,2,3,3.33,3.67,3.33,1.67-2,3.33-3.33,3-5-1-6-3.67-9-7-3,4-12.33,13-14.33,3.67-3.33,1.33-6.67,3-10.33,3.33,1.67-2.33,5-3.33,7.67-4.67,3.33-1.67,3.33-4.67,5.33-7.33.67,1,0,2.33.33,3.67,2.67-1.33,6-4,4.67-7.33,0-.33-4-8.33-.67-7,3,1.33,2,4.33,2.67,6.67,1,4.33-1,6.67-4.33,9.33-1.33,1-5,5-.67,5,3,0,5.67-3.33,7.33-5.33,2-2.67,1.33-5.33,0-8.33-1-2.33-3.33-7.33-.33-9,2.33,3.67,3.33,8,4.33,12.33.67,3.67,1.33,7.33,5.33,8.33-.33-2.67,1.33-4.67,3.67-5.67-1.67-1.33-11,.33-7.33-4.67.33-2.33,7-3.33,7-4.67"/>
    <path class="cls-2" d="M48,94.67c1.67,4.67,7.33,3,10.67,1.67,5.33-2.67,5.33-6.67,5.33-12-2,1-1.67,4.67-2.33,6.33-1.33,2.67-5.67,5-8.67,4.67-4.33-.67-6.33-8-3-10.67.67,2.33-1,7.33,3,7.67,3,.33,9-3.33,8-6.67-4,1.33-6.33,0-5-4.33,1-4,5-1,6.67,1,6.33-3.67-5-17.67,1.67-21.33,1.33,2.33,3.33,5.33,1.67,7.67-2,2.67,0,8.33.33,11.33,3.33-3,.67,2.33,3.33,2.67,1.67.33,2.33-4,3.33-4,.33,1,.33,4,2,3.67,2-.67-.33-3.33,1.67-4,.67,1.67.33,6.67-2,6.33-2-.33-1.67-1.67-4-.33-2,1-2.67,0-4-1-.33,4,1,8.33-1.33,12-2,3-6,4.67-9.33,5.33-8.67,1.67-11-7-8-14,.67,2-.67,5.67,0,8"/>
    <path class="cls-2" d="M129.33,96.33c1.67,4.33,5-4.67,6-6,2.67-4,6.67,6.33,8.33-.33,1-4.33-.33-8.67-.67-13-.33-3-1.33-5.67-3.33-8-2-2.67-4-5-3-8.33,3.33,1.33,3.33,4,5,6.67.33-2-1-4.67.33-6.33,1.67-2.33,3,4,3,4.67.33,1.67-1.33,2.33-.33,5,.67,2,2,4,3.33,5.67-.33-2-3.33-15.67,0-15.67,1,0,2,4,2,4.67.67,2-.67,3.67-.67,6-.33,4,.33,8.67,3,11.67,1.33,1.67,6.33,7.67,3.67,9.67-2-2.33-3.33-5-5-7.33,0,2.67.67,5.67-.67,7.67-1.33-.67-.67-5-.67-6,0-3.67-2.33-6.67-4.33-9.67-.67,5,3.33,14.33-1.33,18-3,2.67-7-3.33-8-1-1,1.67-3.33,7.67-6,7-3.33-.67-5.67-10-2-11,.33,1.67.33,4,1.33,6"/>
    <path class="cls-2" d="M58,73.67c2.33.33,0-7.67,0-9,.33-1.33,1.33-2,2-.67,1,2,1,4.33,1.33,6.33,0,1.67.33,3.67-1,5-2,2-4.67,1-5.67-1.67-4.67,4,1.33,11-2.67,15-.67-3.67,0-7.67-1.33-11-.67-1.67-3.67-1-4-4,0-1.33,1-5-.33-6-.67,1.33-1.33,11.67-4.67,8.67-2.67-2-2-8.67-1-11.33,2,1-.33,8.33,2.33,8.67,1.33.33,1.67-5.33,2-6.33,1-1.67,4.33-6.33,3.67-1.67-.33,2-2,8.33,2,8-.33-3.33-.67-6.67-1.33-10-.33-1.67.67-5,2-2,1,2,.33,3,0,5-.33,2.33.67,4.67,1,6.67,2-1.67-.67-8,1-10.67,4,2.33-.33,10.33,4.67,11"/>
    <path class="cls-2" d="M101,74.33c-1.67,2.33-4.67.33-6-1.33-1.67,2-5,5.33-7.67,2.67-2-2,.33-5.67-1.33-7.33-1,1.67-2.67,9.67-5.67,6-1.67-2-4-9-.33-10.67-.33,2.67-1,5.67.67,8,1.67,2.33,3.33-3.67,4-5,1-2.33,4.33-6.33,3.67-1.33-.33,2-1,6.67,1,8,1.33,1,3-.67,3.67-1.67,1.33-1.67.67-4.33.33-6.33-.33-1.67-1-3.67,0-5.33,1.33-2,2.33,2.67,2.33,3.67s1.33,11.33,3.67,8c2.33-3-4-9.67.33-11.33,1.67-.67,4.67,6,1.33,4,1,3,2.33,7.33,0,10"/>
    <path class="cls-2" d="M113.67,78.33c.33,4.33,4,16.33-1,19-.67-1.33,0-3.33.33-5,.33-3-.33-6-.67-8.67-.67-6.33-1.33-11-5.67-16-1-1.33-2.67-2.33-3-4.33,0-.67-.33-3.67,1-3,1,.33,6.67,5.33,3.67,5.33.33.67,1.67,3.33,2.33,3.33,0-1.67-2-6.67,0-7.67,1.67-1,3.67,5.33,3,6.67-.67,1.67-.67,2.67,0,5,.67,2.67,2.33,5,3.67,7.33,2,3.33,6,8,5,12.33-2-1-3.33-5.67-4.33-7.67-.67-1.67-1.33-3.33-2.33-4.67-.33-.33-2.33-3-2-1.33v-.67"/>
    <path class="cls-2" d="M160,84.67c.33,7-2,16-10.67,16,0-2,4.33-4,5.67-5,3.33-2.67,3-7.67,2.67-11.33-.33-5-.67-10-1.67-15-.33-3-2-7.33.67-9.33,1.67,1.33,4,5,3,6.33-1.67,2,0,17,.33,18.33"/>
    <path class="cls-2" d="M117.33,99.67c8.67-5,6-15.67,5.33-24-.33-2.33-.33-4.67-.67-7,0-1.67-1.33-4-.67-5.67,1.67-4.33,3-.33,3.33,2.33.33,1.67-1,2-.67,3.33.33,2.67.33,5.33.67,8,.33,4.33,1,8.67.67,12.67-.67,6.33-4,13.33-11.67,12,.33-.67,2.67-1,3.67-1.67"/>
    <path class="cls-2" d="M131.33,83c.33,3.33,1.67,9.33,0,12.33-1.33,2-1.33-1.33-1.67-1.67-.33-2.67-.33-5.33-.33-8.33-.67-7.33-3-14.67-3-21.67,0-9,7.67,5,3.33,4.33.33,5,1,10,1.67,15"/>
    <path class="cls-2" d="M77,66c.67,1.67-7.67,6-8.67,6-.33-1.67,3.67-4,4.67-4.67,1-1,1.67-1,1.33-2.33-.67-1.33-.33-3.67,1.33-4.33,3.33-1,1,4,1.33,5.33"/>
    <path class="cls-2" d="M42.67,95.67c0,2.67,1,1.33,2.33.67.67,1.33-1,5-2.67,3.33-2.33-2.33-.33-7.67.67-10,.67,1.67-.67,4.33-.33,6"/>
    <path class="cls-2" d="M136.67,75c.33-1.33-.67-2.67.33-4,1.33-1.67,2.67.33,2,1-.67.67-1.67-.67-1.67,1.33,0,1,.67,3-.33,4-.67-.33-3.67-4.67-3.33-5.33,1.33-1.33,2.67,2.67,3,3"/>
    <path class="cls-2" d="M49.67,80.67c-.67,1.33-8.33,5.67-8.67,4.67,0-1,9.67-6.67,8.67-4.67"/>
    <path class="cls-2" d="M106.33,97.67c-1,3,3.33.33,4.33,0-1.33,2.33-6,4.33-5.33,0-.33,0-1,.33-1.33.33-.67-.67,3.33-3.33,2.33-.33"/>
    <path class="cls-2" d="M142.67,96.67c1,0,2.67,3,1.67,3.67-.67.67-3.67,1-2-.33,2-2,.33-3.33.33-3.33"/>
    <path class="cls-2" d="M95.67,79.67c.33-.67.33-1.67.67-2.33,3.33,2.67-5.33,7-3.67.67.67.67.67,1.67,1.33,2,0-.67.33-1.67.33-2.33.67.67.67,1.67,1.33,2"/>
    <path class="cls-2" d="M134.67,84c-1-1.33,5-5,6-5.67.67,1-4,4.67-6,5.67"/>
    <path class="cls-2" d="M153.33,70.67c-.67-2-2.67-6-.67-7.67,1.33,1,2,6,.67,7.67"/>
    <path class="cls-2" d="M117,64c-.33-.67-1.33-1.33-1.33-2.33.33-1.33,1-1,1.67-.33,1,1.33,1.67,5,0,6,0-1,.33-2.33-.33-3.33"/>
    <path class="cls-2" d="M76.33,73c0,2-3.33,4-3.67,1.33-.33-1,1.33-4.67,2-3.67-1.33,3-1.33,4,1.67,2.33"/>
    <path class="cls-2" d="M118,69.33c1.33,3.33.67.33,2-.33,2.33,4.33-5,3.33-3.33.67.33.33.67,1,.67,1.33.33-.33.33-1,.67-1.67"/>
    <path class="cls-2" d="M139.33,84.67c-1.67-1.33.33-3,1.33-1.33.67,1,.67,3.67-.67,4.33,0-1,.33-2.33-.67-3"/>
    <path class="cls-2" d="M71,92c0-.67-.33-5.67.67-5,1.33.67,1,4.33-.67,5"/>
    <path class="cls-2" d="M57,60.67c.33,1,.67,2.33,1.33.67,2.67,3-6.67,2-3.33-1,0,.33.67,2.33,2,.33"/>
    <path class="cls-2" d="M91,68c0-1.33-2-7-.33-7,2,.33,1.67,5.33.33,7"/>
    <path class="cls-2" d="M44.33,65c-1-.33.67-2,0-3.33-.67.33-1.33-.67-.67-1.33,2.67-2,1.67,4.67.67,4.67"/>
    <path class="cls-2" d="M130.67,132.67l-1.33-4-1.33,4H55s.67,6,8,6h64.67v4.67h17.67v-10.67h-14.67M142,140.67h-12v-3.33h12v3.33"/>
  </g>
</svg>