<?xml version="1.0" encoding="UTF-8"?>
<svg id="Layer_1" data-name="Layer 1" xmlns="http://www.w3.org/2000/svg" viewBox="0 0 200 200">
  <defs>
    <style>
      .cls-1 {
        fill: #007a3d;
      }

      .cls-2 {
        fill: #141414;
      }

      .cls-3 {
        fill: #f9f9f9;
      }

      .cls-4 {
        fill: #ce1126;
      }
    </style>
  </defs>
  <path class="cls-4" d="M193.33,133.33c-18.33,0-33.33-15-33.33-33.33H29.33v70.67c18,18,43,29.33,70.67,29.33,43.67,0,80.67-28,94.33-66.67h-1"/>
  <path class="cls-1" d="M193.33,66.67h1C180.67,28,143.67,0,100,0c-27.67,0-52.67,11.33-70.67,29.33v70.67h130.67c0-18.33,15-33.33,33.33-33.33"/>
  <path class="cls-3" d="M194.33,66.67H29.33v66.67h165c3.67-10.33,5.67-21.67,5.67-33.33s-2-23-5.67-33.33"/>
  <path class="cls-2" d="M29.33,29.33C11.33,47.33,0,72.33,0,100s11.33,52.67,29.33,70.67l37.33-37.33v-66.67L29.33,29.33Z"/>
</svg>