<?xml version="1.0" encoding="UTF-8"?>
<svg id="Layer_1" xmlns="http://www.w3.org/2000/svg" version="1.1" viewBox="0 0 250 250">
  <!-- Generator: Adobe Illustrator 29.8.1, SVG Export Plug-In . SVG Version: 2.1.1 Build 2)  -->
  <defs>
    <style>
      .st0 {
        fill: #fff;
      }
    </style>
  </defs>
  <path class="st0" d="M125,25c-41.42,0-75,33.58-75,75,0,16.31,5.35,31.27,14.23,43.53.16.29.18.62.37.9l50,75c2.32,3.48,6.22,5.57,10.4,5.57s8.08-2.09,10.4-5.57l50-75c.18-.28.21-.61.37-.9,8.89-12.26,14.23-27.22,14.23-43.53,0-41.42-33.58-75-75-75ZM125,125c-13.81,0-25-11.19-25-25s11.19-25,25-25,25,11.19,25,25-11.19,25-25,25Z"/>
</svg>