<?xml version="1.0" encoding="UTF-8"?>
<svg id="Layer_1" data-name="Layer 1" xmlns="http://www.w3.org/2000/svg" viewBox="0 0 200 200">
  <defs>
    <style>
      .cls-1 {
        fill: #db161b;
      }

      .cls-2 {
        fill: #fff;
      }

      .cls-3 {
        fill: #f9f9f9;
      }

      .cls-4 {
        fill: green;
      }
    </style>
  </defs>
  <path class="cls-3" d="M100,0C88.33,0,77,2,66.67,5.67v61h127.67C180.67,28,143.67,0,100,0Z"/>
  <path class="cls-1" d="M194.33,66.67h-127.67V5.67C28,19.33,0,56.33,0,100s28,80.67,66.67,94.33v-61h127.67c3.67-10.33,5.67-21.67,5.67-33.33s-2-23-5.67-33.33Z"/>
  <path class="cls-4" d="M66.67,133.33v61c10.33,3.67,21.67,5.67,33.33,5.67,43.67,0,80.67-27.67,94.33-66.67h-127.67Z"/>
  <path class="cls-2" d="M57,68l-.67.33-5.33-4.67-6-6.67c.33-.67.33-2.33,0-3.33l1-1h1c.33.67,1,1.33,2,1.33s1.67-.33,2-1.33h1.33v1.67h9v-5h-9v1.67h-1.33c-.33-.67-1-1.33-1.67-1.33l.33-.33,7.33-15-1-1-10.33,14,.67.67-.67,1.33h-1.67l-.33-.67h1.33v-1l-1-.33v-2h1.33l.33-1-2.67-.67v-6.67l2-2.33-3.33-2.33-3.33,2.33,2,2.33v6.67l-2.67.67.33,1h1.33v2l-1,.33v1h1.33l-.33.67h-1.67l-.67-1.33.67-.67-10.33-14-.67.33,7.33,15,.33.33c-.67,0-1.33.67-1.67,1.33h-1.33v-1.67h-9.67v5h9v-1.67h1.33c.33.67,1,1.33,2,1.33s1.67-.33,2-1.33h1l1,1.33v.67h-1.33v1.67l-8,.67-.33-.67s-4.33.67-5,1.67v1c.67,1,5,2.33,5,2.33v-.33s3,.67,6.33,1l-2,2.33-5.33,4.67-.67-.33-4.67,4.67-.33.67,5.33-1.67,3.67-2.67-.67-.33,8.67-7.33h.67c1,0,3-.67,3.67-1.33l1,1,9,7.67-.67.33,3.67,2.67,5.33,1.67.33-.67-4.67-4.67"/>
</svg>