<?xml version="1.0" encoding="UTF-8"?>
<svg id="Layer_1" data-name="Layer 1" xmlns="http://www.w3.org/2000/svg" viewBox="0 0 200 200">
  <defs>
    <style>
      .cls-1 {
        fill: #8d1b3d;
      }

      .cls-2 {
        fill: #f9f9f9;
      }
    </style>
  </defs>
  <path class="cls-1" d="M100,0c-17.67,0-34,4.67-48.33,12.33v175c14.33,8,30.67,12.67,48.33,12.67,55.33,0,100-44.67,100-100S155.33,0,100,0"/>
  <path class="cls-2" d="M0,100C0,137.67,21,170.33,51.67,187.67l35-7.67-33.33-10,33.33-10-33.33-10,33.33-10-33.33-10,33.33-10-33.33-10,33.33-10-33.33-10,33.33-10-33.33-10,33.33-10-33.33-10,33.33-10-33.33-10,33.33-10-35-7.67C21,29.67,0,62.33,0,100"/>
</svg>