<?xml version="1.0" encoding="UTF-8"?>
<svg id="Layer_1" data-name="Layer 1" xmlns="http://www.w3.org/2000/svg" viewBox="0 0 1000 398.45">
  <defs>
    <style>
      .cls-1 {
        fill: #fff;
      }
    </style>
  </defs>
  <g>
    <path class="cls-1" d="M4.16,325.91c.25-2.74,2.12-4.03,5.16-3.93,7.02.22,22.19,6.76,37.09,6.59,47.02-.7,50.86-48.32,35.07-61.84-24.35-20.78-59.78-29.13-64.86-40.67-6.29-13.8,9.22-25.83,22.16-25.93,23.17.11,37.9,13.99,39.65,34.71.36,4.08,3.16,3.56,3.16,0-.7-18.28-.87-19.98-.17-36.87.17-3.2-2.82-2.84-2.99,0-.17,3.38-2.99,4.61-5.44,4.61-6.65,0-20.37-6.67-34.46-7.23v-.03c-.26,0-.49.01-.75.02-.54-.02-1.09-.04-1.62-.02l.03.05c-21.31.99-35.21,15.7-35.37,38.86-.17,40.31,57.17,35.52,68.55,61.11,4.22,10.12-10.56,28.43-25.31,28.43-23.31,0-38.16-18.12-39.91-38.92-.35-4.09-3.16-3.56-3.16,0,.7,18.31.88,24.17.17,41.06-.17,3.2,2.72,2.83,2.99,0"/>
    <path class="cls-1" d="M342.89,287.87l11.06,31.98,2.73,7.31h27.72s-3.1-7.31-3.1-7.31l-43.3-118.86c-2.99-8.18-4.05-8.18-6.84,0l-8.99,25.7,4.07,12.13,13.95,42.43c.36.88-.18.71-.54.71l-30.99.02-1.81,4.83h34.65c1.06,0,1.06.36,1.4,1.06"/>
    <path class="cls-1" d="M401.75,262.11v-.36c24.72-2.3,40.34-11.54,40.34-33.55,0-26.66-30.52-30.23-49.47-29.87-2.1.06-33.46.11-35.82.14l2.15,4.79c2.13,0,33.12.29,32.85.29,14.55,0,21.51.29,21.51,22.69,0,22.54-4.67,33.11-24.86,33.11h-9.7s1.31,4.88,1.31,4.88h13.61c8.43,0,10.19,11.7,18.78,32.34,5.11,12.32,9.22,21.14,13.46,30.59h25.86c-8.23-11.53-13.39-26.47-16-33.26-8.43-21.32-8.77-31.44-34.01-31.8"/>
    <path class="cls-1" d="M184.77,198.64h-80.74v6.99s0,112.47,0,112.47v9.07h80.74c3.01,0,4.57-.18,4.4-3.01-.53-13.68-.36-21.5-.18-34.83,0-2.85-3.16-2.85-3.16,0,0,20.97-6.31,32.54-31.92,32.54-8.24,0-23.06.19-23.06-10.13v-44.61c0-2.57,6.52-2.48,11.93-2.48h25.34s1.65-4.88,1.65-4.88h-26.98c-4.98,0-11.93.46-11.93-3.02v-42.66c0-10.38,9.19-10.83,23.06-10.83,32.03,0,31.92,10.47,31.92,31.44,0,2.85,3.16,2.85,3.16,0-.18-13.32-.35-19.35.18-33.02.17-2.85-1.39-3.03-4.4-3.03"/>
    <path class="cls-1" d="M426.21,51.61v49.71c0,18.53-3.06,25.65-12.57,25.65-7.98,0-16.7-8.56-16.7-8.56l-2.92,3.47s9.19,10.58,20.54,10.58c12.77,0,37.47-5.47,37.47-28.34v-60.72s-25.82,8.21-25.82,8.21Z"/>
    <path class="cls-1" d="M337.49,122.87s9.17,9.59,20.52,9.59c12.75,0,37.46-5.47,37.46-28.34v-38.56s-25.82,8.2-25.82,8.2v27.56c0,18.53-3.05,25.66-12.57,25.65-6.99,0-16.72-7.35-16.72-7.35l-2.88,3.26Z"/>
    <path class="cls-1" d="M341.51,104.12v-44.59s-25.82,8.22-25.82,8.22v33.57c0,18.51-3.06,25.65-12.59,25.65-.47,0-4.76-.03-5.25-.03-12.64,0-23.63-12.47-23.63-12.47l-2.83,4.3s8.64,13.64,26.94,13.64c.64,0,5.05.04,5.68.04,12.77,0,37.48-5.47,37.48-28.34"/>
    <path class="cls-1" d="M118.58,124.51l2.36,6.07h114.31v-.1c.32,0,.63.01.95.01,12.3,0,36.11-5.27,36.11-27.3v-62.73s-24.88,7.65-24.88,7.65v52.39c0,17.84-2.27,24.03-11.43,24.03-.27,0-.5.01-.75.03v-.05h-27.12s0-55.46,0-55.46c0-22.05-24.34-27.31-40.88-27.31-17.22,0-38.15,5.97-38.15,5.97v13.35s20.2-14.04,37.27-14.04c10.67,0,16.89,6.88,16.89,24.72v52.77s-64.67,0-64.67,0Z"/>
    <path class="cls-1" d="M231.44,157.68c0,6.98,5.6,12.62,12.46,12.62,6.9,0,12.46-5.65,12.46-12.62,0-6.98-5.56-12.63-12.46-12.63-6.87,0-12.46,5.65-12.46,12.63"/>
    <path class="cls-1" d="M273.67,170.3c6.88,0,12.47-5.64,12.47-12.62,0-6.98-5.59-12.63-12.47-12.63-6.88,0-12.46,5.65-12.46,12.63,0,6.99,5.58,12.62,12.46,12.62"/>
    <path class="cls-1" d="M65.14,15c.76.2,7.27-.96,7.27,7.02v108.47h25.82V1.7s-25.82,8.2-25.82,8.2v.07c-3.18,1.05-6.32,2.08-7.27,2.42-2.13.77-.78,2.4,0,2.6"/>
    <path class="cls-1" d="M49.6,125.86V52.05s-17.85,5.67-17.85,5.67v-.03s-.92.3-2.31.77l-5.67,1.79v.08c-3.25,1.08-6.47,2.14-7.29,2.4-1.79.56-.84,2.36,0,2.59.86.22,7.29-1.38,7.29,7.01v.03s0,51.69,0,51.69c0,26.22-10.71,40.71-23.03,40.71v5.49c24.81,0,48.85-13.38,48.85-44.4"/>
    <rect class="cls-1" x="0" y="387.36" width="121.41" height="2.77"/>
    <rect class="cls-1" x="329.62" y="387.36" width="121.41" height="2.77"/>
    <path class="cls-1" d="M208.9,203.15c6.67.06,24.42.15,25.6.15,31.21,0,34.18,23.65,34.18,58.63,0,32.16-2.79,60.39-36.46,60.39-.87,0-22.24.02-23.37.06v4.54c2.63.06,26.19.15,28.79.22,46.66,1.25,59.97-40.34,59.97-63.62,0-40.31-25.05-66.45-61-65.2-2.21.08-20.78.13-27.72.17v-.02h-4.82v81.08s4.82,2.41,4.82,2.41v-78.82Z"/>
    <path class="cls-1" d="M309.52,390.38c0,3.42-.54,3.7-2.37,3.7h-9.69s9.19-8.21,9.19-8.21c3.21-2.87,3.91-4.79,3.91-6.95,0-4.25-3.61-6.6-7.47-6.6-3.73,0-7.41,2.44-7.41,6.48,0,1.62.93,3.22,2.68,3.22,1.48,0,2.4-.7,2.4-2.28,0-1.37-.89-1.96-2.13-1.96-.19,0-.45.07-.71.15-.83.24-1.03-.24-1.03-.46,0-2.25,2.49-3.78,4.5-3.78,3.13,0,4.57,3.03,4.57,5.86,0,1.6-.22,2.75-.57,3.92-.97,3.26-7.82,9.07-10.5,11.63v2.55h15.32s.19-7.27.19-7.27h-.86ZM287.83,380.91c0,1.42-.08,2.76-.23,4.17-.16,1.21-2.79,2.72-3.95,2.72-3.46,0-3.33-4.44-3.33-6.88,0-7.42,1.78-7.85,3.45-7.85,2.13,0,4.07.46,4.07,7.85M277.32,398.24c7.99-.31,15.13-7.07,15.13-15.35,0-5.11-2.88-10.57-8.5-10.57-4.42,0-8.3,3.85-8.3,8.33,0,4.87,3.38,8.14,7.29,8.14,1.79,0,3.3-.8,4.65-1.93-.65,5.92-4.53,9.63-10.28,10.53v.86ZM268.39,391.33c0,4.52-1.04,6.05-3.83,6.05-3.56,0-3.8-3.11-3.8-6.05,0-2.4.39-6.16,3.8-6.16,3.41,0,3.83,2.86,3.83,6.16M265.89,384.56c3.09-.83,6.4-2.37,6.4-6.08,0-4.36-4.08-6.17-7.72-6.17-4.14,0-7.63,1.96-7.63,6.17,0,3.85,3.28,5.3,6.2,6.08v.08c-3.09.74-6.93,2.72-6.93,6.84,0,4.12,3.32,6.75,8.36,6.75,3.75,0,8.41-1.77,8.41-6.75,0-4.06-3.55-6.29-7.09-6.84v-.08ZM267.77,378.76c0,2.39-.21,5.18-3.21,5.18-2.02,0-3.13-.86-3.13-5.18,0-2.51,0-5.63,3.13-5.63,2.26,0,3.21.68,3.21,5.63M244.77,396.67h-4.61v.98h13.3v-.98h-4.5s0-24.36,0-24.36c-2.24.16-4.53.43-6.79.43h-2.24v.99h2.17c2.34,0,2.68-.09,2.68,1.6v21.34ZM224.72,388.97c.63,0,.99.12.99-.72,0-3.88-3.35-6.39-6.95-6.39-4.22,0-7.7,3.92-7.7,8.25,0,4,3.05,8.13,7.29,8.13,3.75,0,6.43-1.69,7.43-5.51h-.95c-.79,2.68-2.91,4.72-5.72,4.72-3.28,0-3.44-2.6-3.44-5.33v-3.15s9.06,0,9.06,0ZM215.66,387.98c0-2.47-.35-5.33,2.87-5.33,3.44,0,2.79,2.7,2.79,5.33h-5.65ZM198.69,389.31c0-2.78-.32-6.67,3.45-6.67.63,0,2.71.27,2.71,1.36,0,.72-1.2.96-1.2,2.12,0,1.5,1.2,2.01,2.4,2.01,1.14,0,1.95-1.21,1.95-2.28,0-2.95-3.45-4.01-5.78-4.01-2.13,0-3.88.59-5.46,2.01-1.47,1.3-2.51,3.93-2.58,5.85-.19,4.7,2.97,8.52,7.7,8.52,3.28,0,5.92-2.07,6.46-5.51h-.88c-.7,2.76-2.55,4.72-5.34,4.72-2.57,0-3.42-1.25-3.42-4.99v-3.15ZM179.22,381.93c-2.41.09-4.78.24-6.74.16v.99h2.63s0,13.59,0,13.59h-2.63v.98h9.17v-.98h-2.43s0-5.18,0-5.18c0-1.86,0-3.65.5-4.96.58-1.45,2.1-3.27,3.75-3.27,2.6,0,2.23,2.68,2.23,6.34v7.07s-2.44,0-2.44,0v.98h8.99v-.98h-2.44s0-7.27,0-7.27c0-3.89.42-7.55-4.72-7.55-2.8,0-4.55,1.34-5.77,3.77h-.08s0-3.7,0-3.7ZM167.42,374.71c0-1.18-1.17-2.12-2.29-2.12-1.06,0-2.1,1.05-2.1,2.12s.88,2.35,2.1,2.35c1.31,0,2.29-1.02,2.29-2.35M170.39,397.65v-.98h-2.88s0-14.74,0-14.74c-2.35.09-4.72.24-6.99.16v.99h2.82s0,13.59,0,13.59h-2.82v.98h9.87ZM144.06,396.23c1.34,1.26,3.67,2,5.49,2,4.99,0,8.17-3.65,8.17-8.61,0-3.54-1.16-6.12-4.42-7.7-.81-.38-1.77-.66-2.55-.9-.67-.19-1.43-.46-2.4-.75-2.4-.66-4.45-.97-4.45-4,0-2.64,2.32-4.48,4.79-4.48,3.88,0,6.29,3.11,6.71,6.85h1.24v-7.43h-.71s-1.47,1.56-1.47,1.56c-1.79-1.41-3.41-1.96-5.65-1.96-4.05,0-7.05,3.07-7.05,7.2,0,3.74,1.77,6.48,5.37,7.59.8.23,1.55.5,2.34.77,2.89,1.02,6.12,1.73,6.12,5.38,0,3.23-2.71,5.51-5.78,5.51-4.11,0-6.32-3.47-7.14-7.2h-1.12v7.82h.65s1.84-1.65,1.84-1.65Z"/>
  </g>
  <g>
    <path class="cls-1" d="M611.82,93.8v-37.08s-34.77-53.52-34.77-53.52h22s22.41,36.27,22.41,36.27l22.41-36.27h21.87s-34.64,53.52-34.64,53.52v37.08s-19.29,0-19.29,0Z"/>
    <path class="cls-1" d="M659.76,48.57c0-27.3,19.97-46.86,47.4-46.86,27.3,0,47.27,19.56,47.27,46.86,0,27.3-19.97,46.86-47.27,46.86-27.44,0-47.4-19.56-47.4-46.86ZM734.61,48.57c0-16.98-10.73-29.75-27.44-29.75-16.84,0-27.57,12.77-27.57,29.75,0,16.84,10.73,29.75,27.57,29.75,16.71,0,27.44-12.9,27.44-29.75Z"/>
    <path class="cls-1" d="M763.4,57.53V3.2s19.56,0,19.56,0v53.79c0,12.63,7.33,21.32,21.33,21.32,13.99,0,21.19-8.69,21.19-21.32V3.2s19.69,0,19.69,0v54.33c0,22.41-13.31,37.9-40.88,37.9-27.57,0-40.88-15.48-40.88-37.9Z"/>
    <path class="cls-1" d="M909.68,93.8l-17.79-32.19h-14.13v32.19s-19.29,0-19.29,0V3.2s42.38,0,42.38,0c18.88,0,30.56,12.36,30.56,29.2,0,15.89-10.19,24.59-19.97,26.89l20.51,34.5h-22.28ZM911.58,32.27c0-7.47-5.84-12.09-13.45-12.09h-20.37v24.45h20.37c7.61,0,13.45-4.62,13.45-12.36Z"/>
    <path class="cls-1" d="M580.31,182.01l10.6-15.08c6.38,6.66,16.3,12.36,28.8,12.36,10.73,0,15.76-4.75,15.76-10.05,0-15.76-52.16-4.75-52.16-38.85,0-15.08,13.04-27.57,34.36-27.57,14.4,0,26.35,4.35,35.32,12.63l-10.73,14.4c-7.33-6.79-17.11-9.92-26.35-9.92-8.15,0-12.77,3.53-12.77,8.97,0,14.26,52.02,4.62,52.02,38.44,0,16.57-11.95,29.07-36.27,29.07-17.52,0-30.02-5.84-38.57-14.4Z"/>
    <path class="cls-1" d="M663.43,194.78v-90.6s42.38,0,42.38,0c19.69,0,30.43,13.31,30.43,29.2,0,15.76-10.87,29.07-30.43,29.07h-23.09v32.33s-19.29,0-19.29,0ZM716.54,133.38c0-7.61-5.84-12.22-13.45-12.22h-20.37v24.31h20.37c7.61,0,13.45-4.62,13.45-12.09Z"/>
    <path class="cls-1" d="M796.27,194.78l-5.7-15.35h-38.85s-5.7,15.35-5.7,15.35h-21.87s34.91-90.6,34.91-90.6h24.18s34.91,90.6,34.91,90.6h-21.87ZM771.14,123.47l-14.13,38.98h28.25s-14.13-38.98-14.13-38.98Z"/>
    <path class="cls-1" d="M812.97,149.55c0-27.98,21.05-46.86,48.35-46.86,19.83,0,31.38,10.73,37.76,22.14l-16.57,8.15c-3.8-7.33-11.95-13.18-21.19-13.18-16.57,0-28.52,12.63-28.52,29.75,0,17.11,11.95,29.75,28.52,29.75,9.24,0,17.39-5.84,21.19-13.17l16.57,8.01c-6.38,11.27-17.93,22.28-37.76,22.28-27.3,0-48.35-19.02-48.35-46.86Z"/>
    <path class="cls-1" d="M906.01,194.78v-90.6s64.11,0,64.11,0v16.98s-44.82,0-44.82,0v19.02h43.87s0,16.98,0,16.98h-43.87v20.65h44.82s0,16.98,0,16.98h-64.11Z"/>
    <path class="cls-1" d="M978,185.27c0-5.98,5.02-11,11-11,5.98,0,11,5.03,11,11,0,5.98-5.02,11-11,11-5.98,0-11-5.03-11-11Z"/>
    <path class="cls-1" d="M611.82,295.76v-37.08s-34.77-53.52-34.77-53.52h22s22.41,36.27,22.41,36.27l22.41-36.27h21.87s-34.64,53.52-34.64,53.52v37.08s-19.29,0-19.29,0Z"/>
    <path class="cls-1" d="M659.76,250.53c0-27.3,19.97-46.86,47.4-46.86,27.3,0,47.27,19.56,47.27,46.86,0,27.3-19.97,46.86-47.27,46.86-27.44,0-47.4-19.56-47.4-46.86ZM734.61,250.53c0-16.98-10.73-29.75-27.44-29.75-16.84,0-27.57,12.77-27.57,29.75,0,16.84,10.73,29.75,27.57,29.75,16.71,0,27.44-12.9,27.44-29.75Z"/>
    <path class="cls-1" d="M763.4,259.49v-54.33s19.56,0,19.56,0v53.79c0,12.63,7.33,21.32,21.33,21.32,13.99,0,21.19-8.69,21.19-21.32v-53.79s19.69,0,19.69,0v54.33c0,22.41-13.31,37.9-40.88,37.9-27.57,0-40.88-15.48-40.88-37.9Z"/>
    <path class="cls-1" d="M909.68,295.76l-17.79-32.19h-14.13v32.19s-19.29,0-19.29,0v-90.6s42.38,0,42.38,0c18.88,0,30.56,12.36,30.56,29.2,0,15.89-10.19,24.59-19.97,26.89l20.51,34.5h-22.28ZM911.58,234.23c0-7.47-5.84-12.09-13.45-12.09h-20.37v24.45h20.37c7.61,0,13.45-4.62,13.45-12.36Z"/>
    <path class="cls-1" d="M649.18,396.74l-5.7-15.35h-38.85s-5.7,15.35-5.7,15.35h-21.87s34.91-90.6,34.91-90.6h24.18s34.91,90.6,34.91,90.6h-21.87ZM624.05,325.43l-14.13,38.98h28.25s-14.13-38.98-14.13-38.98Z"/>
    <path class="cls-1" d="M726.05,396.74l-17.79-32.19h-14.13v32.19s-19.29,0-19.29,0v-90.6s42.38,0,42.38,0c18.88,0,30.56,12.36,30.56,29.2,0,15.89-10.19,24.59-19.97,26.89l20.51,34.5h-22.28ZM727.95,335.21c0-7.47-5.84-12.09-13.45-12.09h-20.37v24.45h20.37c7.61,0,13.45-4.62,13.45-12.36Z"/>
    <path class="cls-1" d="M777.12,396.74v-73.62h-26.49s0-16.98,0-16.98h72.26s0,16.98,0,16.98h-26.35v73.62s-19.42,0-19.42,0Z"/>
    <path class="cls-1" d="M814.87,387.23c0-5.98,5.02-11,11-11,5.98,0,11,5.03,11,11,0,5.98-5.02,11-11,11-5.98,0-11-5.03-11-11Z"/>
  </g>
  <path class="cls-1" d="M520.71,398.45c-.94,0-1.7-.76-1.7-1.7V1.7c0-.94.76-1.7,1.7-1.7s1.7.76,1.7,1.7v395.04c0,.94-.76,1.7-1.7,1.7Z"/>
</svg>